<mxfile host="app.diagrams.net" modified="2023-12-12T14:43:24.149Z" agent="Mozilla/5.0 (Windows NT 10.0; Win64; x64; rv:120.0) Gecko/20100101 Firefox/120.0" etag="AwVyHrYYeLhp9YgEMdlL" version="22.1.7" type="device">
  <diagram name="Seite-1" id="2-1_Vc9jkh2CoyOOPEtC">
    <mxGraphModel dx="1590" dy="863" grid="1" gridSize="10" guides="1" tooltips="1" connect="1" arrows="1" fold="1" page="1" pageScale="1" pageWidth="827" pageHeight="1169" math="0" shadow="0">
      <root>
        <mxCell id="0" />
        <mxCell id="1" parent="0" />
        <mxCell id="Y6avNihDts5gZcnMu05K-1" value="&lt;b&gt;&lt;font style=&quot;font-size: 18px;&quot;&gt;&amp;nbsp;Database:&lt;/font&gt;&lt;/b&gt;&lt;br&gt;&lt;ol&gt;&lt;li&gt;Trips&lt;/li&gt;&lt;ol&gt;&lt;li&gt;Trip_id&lt;/li&gt;&lt;li&gt;user_id&lt;/li&gt;&lt;li&gt;timestamp&lt;/li&gt;&lt;li&gt;geometry&lt;/li&gt;&lt;/ol&gt;&lt;li&gt;POI&lt;/li&gt;&lt;ol&gt;&lt;li&gt;type&lt;/li&gt;&lt;li&gt;geometry&lt;/li&gt;&lt;/ol&gt;&lt;/ol&gt;" style="shape=cylinder3;whiteSpace=wrap;html=1;boundedLbl=1;backgroundOutline=1;size=15;align=left;verticalAlign=top;fillColor=#dae8fc;strokeColor=#6c8ebf;" parent="1" vertex="1">
          <mxGeometry x="520" y="450" width="156" height="200" as="geometry" />
        </mxCell>
        <mxCell id="Y6avNihDts5gZcnMu05K-13" style="edgeStyle=orthogonalEdgeStyle;rounded=0;orthogonalLoop=1;jettySize=auto;html=1;exitX=1.009;exitY=0.472;exitDx=0;exitDy=0;exitPerimeter=0;" parent="1" source="Y6avNihDts5gZcnMu05K-2" target="Y6avNihDts5gZcnMu05K-12" edge="1">
          <mxGeometry relative="1" as="geometry" />
        </mxCell>
        <mxCell id="Y6avNihDts5gZcnMu05K-2" value="&lt;div&gt;&lt;span style=&quot;border-color: var(--border-color);&quot;&gt;&lt;b&gt;&amp;nbsp;Data collection&lt;/b&gt;&lt;/span&gt;&lt;/div&gt;&lt;div&gt;&lt;br&gt;&lt;/div&gt;&lt;div&gt;&lt;br&gt;&lt;/div&gt;&lt;div&gt;&lt;span style=&quot;border-color: var(--border-color);&quot;&gt;&lt;span style=&quot;background-color: initial;&quot;&gt;&amp;nbsp;Trajectory&lt;/span&gt;&lt;/span&gt;&lt;/div&gt;&lt;div&gt;&lt;span style=&quot;border-color: var(--border-color);&quot;&gt;&lt;span style=&quot;background-color: initial;&quot;&gt;&amp;nbsp;Marked points&lt;/span&gt;&lt;/span&gt;&lt;/div&gt;&lt;div&gt;&lt;span style=&quot;border-color: var(--border-color);&quot;&gt;&lt;span style=&quot;background-color: initial;&quot;&gt;&amp;nbsp;Timestamp&lt;/span&gt;&lt;/span&gt;&lt;/div&gt;&lt;div&gt;&lt;span style=&quot;border-color: var(--border-color);&quot;&gt;&lt;span style=&quot;background-color: initial;&quot;&gt;&amp;nbsp;Description of the trip&lt;/span&gt;&lt;/span&gt;&lt;/div&gt;&lt;div&gt;&lt;span style=&quot;border-color: var(--border-color);&quot;&gt;&lt;span style=&quot;background-color: initial;&quot;&gt;&amp;nbsp;Ip-address&lt;br&gt;&lt;/span&gt;&lt;/span&gt;&lt;/div&gt;&lt;div&gt;&lt;span style=&quot;border-color: var(--border-color);&quot;&gt;&lt;span style=&quot;background-color: initial;&quot;&gt;&lt;/span&gt;&lt;/span&gt;&lt;/div&gt;" style="rounded=0;whiteSpace=wrap;html=1;fillColor=#fff2cc;strokeColor=#d6b656;align=left;" parent="1" vertex="1">
          <mxGeometry x="100" y="420" width="140" height="180" as="geometry" />
        </mxCell>
        <mxCell id="Y6avNihDts5gZcnMu05K-3" value="&lt;font style=&quot;&quot;&gt;&lt;font style=&quot;font-size: 18px;&quot;&gt;&lt;b style=&quot;&quot;&gt;&amp;nbsp;Open Street Map Data&lt;/b&gt;&lt;br&gt;&lt;/font&gt;&lt;/font&gt;&lt;div&gt;&lt;font style=&quot;&quot;&gt;&lt;br&gt;&lt;/font&gt;&lt;/div&gt;&lt;div&gt;&lt;font style=&quot;&quot;&gt;&amp;nbsp;Restaurants&lt;/font&gt;&lt;/div&gt;&lt;font style=&quot;&quot;&gt;&amp;nbsp;Places of Worship&lt;br&gt;&lt;/font&gt;" style="rounded=1;whiteSpace=wrap;html=1;align=left;" parent="1" vertex="1">
          <mxGeometry x="498" y="340" width="200" height="80" as="geometry" />
        </mxCell>
        <mxCell id="Y6avNihDts5gZcnMu05K-4" value="&lt;div&gt;&lt;b&gt;&lt;br&gt;&lt;/b&gt;&lt;/div&gt;&lt;div&gt;&lt;b&gt;&lt;br&gt;&lt;/b&gt;&lt;/div&gt;&lt;div&gt;&lt;b&gt;&lt;br&gt;&lt;/b&gt;&lt;/div&gt;&lt;div&gt;&lt;b&gt;&amp;nbsp;Result charts&lt;/b&gt;&lt;/div&gt;&lt;br&gt;&lt;br&gt;&lt;div&gt;&lt;span style=&quot;border-color: var(--border-color);&quot;&gt;&lt;font style=&quot;font-size: 12px;&quot;&gt;&amp;nbsp;user can view all&lt;br&gt;&amp;nbsp;completed trips&lt;br&gt;&amp;nbsp;associated with their &lt;br&gt;&amp;nbsp;ip-address&lt;/font&gt;&lt;/span&gt;&lt;/div&gt;&lt;div&gt;&lt;span style=&quot;border-color: var(--border-color);&quot;&gt;&lt;font style=&quot;font-size: 12px;&quot;&gt;&lt;br&gt;&lt;/font&gt;&lt;/span&gt;&lt;/div&gt;&lt;div&gt;&lt;span style=&quot;border-color: var(--border-color);&quot;&gt;&lt;font style=&quot;font-size: 12px;&quot;&gt;&amp;nbsp;user can select one trip&lt;br&gt;&amp;nbsp;they want to display&lt;br&gt;&lt;/font&gt;&lt;/span&gt;&lt;/div&gt;&lt;div&gt;&lt;span style=&quot;border-color: var(--border-color);&quot;&gt;&lt;/span&gt;&lt;/div&gt;" style="rounded=0;whiteSpace=wrap;html=1;verticalAlign=top;align=left;fillColor=#fff2cc;strokeColor=#d6b656;" parent="1" vertex="1">
          <mxGeometry x="100" y="620" width="140" height="240" as="geometry" />
        </mxCell>
        <mxCell id="Y6avNihDts5gZcnMu05K-7" value="" style="endArrow=classic;html=1;rounded=0;exitX=1;exitY=0.5;exitDx=0;exitDy=0;entryX=1;entryY=0;entryDx=0;entryDy=56.25;entryPerimeter=0;edgeStyle=orthogonalEdgeStyle;" parent="1" source="Y6avNihDts5gZcnMu05K-3" target="Y6avNihDts5gZcnMu05K-1" edge="1">
          <mxGeometry width="50" height="50" relative="1" as="geometry">
            <mxPoint x="610" y="420" as="sourcePoint" />
            <mxPoint x="660" y="370" as="targetPoint" />
            <Array as="points">
              <mxPoint x="740" y="380" />
              <mxPoint x="740" y="506" />
            </Array>
          </mxGeometry>
        </mxCell>
        <mxCell id="Y6avNihDts5gZcnMu05K-9" value="Python script&lt;br style=&quot;border-color: var(--border-color);&quot;&gt;using SQL" style="edgeLabel;html=1;align=center;verticalAlign=middle;resizable=0;points=[];" parent="Y6avNihDts5gZcnMu05K-7" vertex="1" connectable="0">
          <mxGeometry x="-0.6478" y="-1" relative="1" as="geometry">
            <mxPoint x="2" y="64" as="offset" />
          </mxGeometry>
        </mxCell>
        <mxCell id="Y6avNihDts5gZcnMu05K-12" value="&lt;div&gt;&lt;b&gt;&amp;nbsp;WFS-R&lt;/b&gt;&lt;span style=&quot;font-weight: bold; font-size: 11px; text-align: center;&quot;&gt;equest&lt;/span&gt;&lt;/div&gt;&lt;div&gt;&lt;span style=&quot;font-weight: bold; font-size: 11px; text-align: center;&quot;&gt;&lt;/span&gt;&lt;/div&gt;&lt;div&gt;&lt;br&gt;&lt;/div&gt;&lt;div&gt;&amp;nbsp;Trip &amp;amp; Marked Points&lt;/div&gt;" style="rounded=1;whiteSpace=wrap;html=1;align=left;verticalAlign=top;fillColor=#d5e8d4;strokeColor=#82b366;shadow=0;" parent="1" vertex="1">
          <mxGeometry x="320" y="470" width="120" height="70" as="geometry" />
        </mxCell>
        <mxCell id="Y6avNihDts5gZcnMu05K-15" value="&lt;div&gt;&lt;b&gt;&lt;br&gt;&lt;/b&gt;&lt;/div&gt;&lt;div&gt;&lt;b&gt;&amp;nbsp;Python Code &lt;/b&gt;&lt;br&gt;&lt;/div&gt;&lt;div&gt;&lt;br&gt;&lt;/div&gt;&lt;div&gt;&amp;nbsp;An SQL query is executed&lt;br&gt;&amp;nbsp;to fetch all Points of&lt;br&gt;&amp;nbsp;Interest (POI) from the&lt;br&gt;&amp;nbsp;database&lt;/div&gt;&lt;div&gt;&amp;nbsp;&lt;/div&gt;&lt;div&gt;&amp;nbsp;The app is then provided&lt;br&gt;&amp;nbsp;with a list of all POIs&lt;br&gt;&amp;nbsp;located within a buffer&lt;br&gt;&amp;nbsp;around the trajectory&lt;/div&gt;" style="rounded=0;whiteSpace=wrap;html=1;verticalAlign=top;align=left;fillColor=#e1d5e7;strokeColor=#9673a6;" parent="1" vertex="1">
          <mxGeometry x="523" y="710" width="150" height="200" as="geometry" />
        </mxCell>
        <mxCell id="Y6avNihDts5gZcnMu05K-16" value="&lt;div&gt;&lt;b&gt;&lt;br&gt;&lt;/b&gt;&lt;/div&gt;&lt;div&gt;&lt;b&gt;&lt;br&gt;&lt;/b&gt;&lt;/div&gt;&lt;div&gt;&lt;b&gt;&lt;br&gt;&lt;/b&gt;&lt;/div&gt;&lt;div&gt;&lt;b&gt;&amp;nbsp;Visualisation&lt;/b&gt;&lt;/div&gt;&lt;div&gt;&lt;b&gt;&lt;br&gt;&lt;/b&gt;&lt;/div&gt;&lt;div&gt;&lt;b&gt;&lt;br&gt;&lt;/b&gt;&lt;/div&gt;&amp;nbsp;The results are visually&lt;br&gt;&amp;nbsp;presented&lt;font size=&quot;1&quot;&gt; &lt;br&gt;&lt;/font&gt;" style="rounded=0;whiteSpace=wrap;html=1;verticalAlign=top;align=left;fillColor=#fff2cc;strokeColor=#d6b656;" parent="1" vertex="1">
          <mxGeometry x="100" y="880" width="140" height="190" as="geometry" />
        </mxCell>
        <mxCell id="Y6avNihDts5gZcnMu05K-19" value="&lt;b&gt;&amp;nbsp;WFS-Request&lt;br&gt;&lt;/b&gt;&lt;div&gt;&lt;br&gt;&lt;/div&gt;&lt;div&gt;&amp;nbsp;trip_id, timestamp, &lt;br&gt;&amp;nbsp;trip_name&lt;/div&gt;" style="rounded=1;whiteSpace=wrap;html=1;verticalAlign=top;align=left;fillColor=#d5e8d4;strokeColor=#82b366;shadow=0;" parent="1" vertex="1">
          <mxGeometry x="320" y="620" width="120" height="70" as="geometry" />
        </mxCell>
        <mxCell id="Y6avNihDts5gZcnMu05K-23" value="&amp;nbsp;&lt;b&gt;Python Flask&lt;/b&gt;&lt;br&gt;&lt;div&gt;&lt;br&gt;&lt;/div&gt;&lt;div&gt;&amp;nbsp;trip_id&lt;/div&gt;" style="rounded=1;whiteSpace=wrap;html=1;align=left;verticalAlign=top;fillColor=#e1d5e7;strokeColor=#9673a6;shadow=0;" parent="1" vertex="1">
          <mxGeometry x="320" y="720" width="120" height="70" as="geometry" />
        </mxCell>
        <mxCell id="Y6avNihDts5gZcnMu05K-25" value="" style="endArrow=classic;html=1;rounded=0;exitX=1;exitY=0.5;exitDx=0;exitDy=0;entryX=-0.011;entryY=0.227;entryDx=0;entryDy=0;entryPerimeter=0;" parent="1" source="Y6avNihDts5gZcnMu05K-23" target="Y6avNihDts5gZcnMu05K-15" edge="1">
          <mxGeometry width="50" height="50" relative="1" as="geometry">
            <mxPoint x="70" y="1070" as="sourcePoint" />
            <mxPoint x="336" y="1001" as="targetPoint" />
          </mxGeometry>
        </mxCell>
        <mxCell id="Y6avNihDts5gZcnMu05K-26" value="&lt;b&gt;&amp;nbsp;Python Flask&lt;/b&gt;&lt;br&gt;&lt;div&gt;&lt;br&gt;&lt;/div&gt;&lt;div&gt;&amp;nbsp;POI-IDs within the&lt;br&gt;&amp;nbsp;buffer of trajectory&lt;/div&gt;" style="rounded=1;whiteSpace=wrap;html=1;align=left;verticalAlign=top;fillColor=#e1d5e7;strokeColor=#9673a6;shadow=0;" parent="1" vertex="1">
          <mxGeometry x="320" y="840" width="120" height="70" as="geometry" />
        </mxCell>
        <mxCell id="Y6avNihDts5gZcnMu05K-27" value="" style="endArrow=classic;html=1;rounded=0;entryX=1;entryY=0.5;entryDx=0;entryDy=0;exitX=-0.002;exitY=0.824;exitDx=0;exitDy=0;exitPerimeter=0;" parent="1" source="Y6avNihDts5gZcnMu05K-15" target="Y6avNihDts5gZcnMu05K-26" edge="1">
          <mxGeometry width="50" height="50" relative="1" as="geometry">
            <mxPoint x="520" y="875" as="sourcePoint" />
            <mxPoint x="530" y="990" as="targetPoint" />
          </mxGeometry>
        </mxCell>
        <mxCell id="Y6avNihDts5gZcnMu05K-33" value="&lt;b&gt;&amp;nbsp;WMS-Request&lt;br&gt;&lt;/b&gt;&lt;div&gt;&lt;br&gt;&lt;/div&gt;&lt;div&gt;&amp;nbsp;POI: geometry&lt;br&gt;&amp;nbsp;trips: geometry&lt;/div&gt;" style="rounded=1;whiteSpace=wrap;html=1;verticalAlign=top;align=left;fillColor=#d5e8d4;strokeColor=#82b366;shadow=0;" parent="1" vertex="1">
          <mxGeometry x="320" y="990" width="120" height="70" as="geometry" />
        </mxCell>
        <mxCell id="y3wrZIzh8ztNuLBp43Ln-10" value="" style="endArrow=classic;html=1;rounded=0;exitX=1;exitY=0.5;exitDx=0;exitDy=0;entryX=0;entryY=0;entryDx=0;entryDy=56.25;entryPerimeter=0;" parent="1" source="Y6avNihDts5gZcnMu05K-12" target="Y6avNihDts5gZcnMu05K-1" edge="1">
          <mxGeometry width="50" height="50" relative="1" as="geometry">
            <mxPoint x="410" y="610" as="sourcePoint" />
            <mxPoint x="460" y="560" as="targetPoint" />
          </mxGeometry>
        </mxCell>
        <mxCell id="y3wrZIzh8ztNuLBp43Ln-11" value="" style="endArrow=classic;startArrow=classic;html=1;rounded=0;exitX=0.997;exitY=0.192;exitDx=0;exitDy=0;entryX=0;entryY=0.5;entryDx=0;entryDy=0;edgeStyle=orthogonalEdgeStyle;exitPerimeter=0;" parent="1" source="Y6avNihDts5gZcnMu05K-4" target="Y6avNihDts5gZcnMu05K-19" edge="1">
          <mxGeometry width="50" height="50" relative="1" as="geometry">
            <mxPoint x="240" y="710" as="sourcePoint" />
            <mxPoint x="290" y="700" as="targetPoint" />
          </mxGeometry>
        </mxCell>
        <mxCell id="y3wrZIzh8ztNuLBp43Ln-12" value="" style="endArrow=classic;startArrow=classic;html=1;rounded=0;exitX=1;exitY=0.5;exitDx=0;exitDy=0;entryX=0;entryY=0.5;entryDx=0;entryDy=0;entryPerimeter=0;edgeStyle=orthogonalEdgeStyle;" parent="1" source="Y6avNihDts5gZcnMu05K-19" target="Y6avNihDts5gZcnMu05K-1" edge="1">
          <mxGeometry width="50" height="50" relative="1" as="geometry">
            <mxPoint x="430" y="720" as="sourcePoint" />
            <mxPoint x="480" y="670" as="targetPoint" />
          </mxGeometry>
        </mxCell>
        <mxCell id="y3wrZIzh8ztNuLBp43Ln-13" value="" style="endArrow=classic;html=1;rounded=0;exitX=1.005;exitY=0.563;exitDx=0;exitDy=0;entryX=0;entryY=0.5;entryDx=0;entryDy=0;exitPerimeter=0;" parent="1" source="Y6avNihDts5gZcnMu05K-4" target="Y6avNihDts5gZcnMu05K-23" edge="1">
          <mxGeometry width="50" height="50" relative="1" as="geometry">
            <mxPoint x="350" y="860" as="sourcePoint" />
            <mxPoint x="400" y="810" as="targetPoint" />
          </mxGeometry>
        </mxCell>
        <mxCell id="y3wrZIzh8ztNuLBp43Ln-14" value="" style="endArrow=classic;html=1;rounded=0;entryX=1.013;entryY=0.306;entryDx=0;entryDy=0;entryPerimeter=0;exitX=0;exitY=0.5;exitDx=0;exitDy=0;edgeStyle=orthogonalEdgeStyle;" parent="1" source="Y6avNihDts5gZcnMu05K-26" target="Y6avNihDts5gZcnMu05K-16" edge="1">
          <mxGeometry width="50" height="50" relative="1" as="geometry">
            <mxPoint x="320" y="880" as="sourcePoint" />
            <mxPoint x="370" y="830" as="targetPoint" />
          </mxGeometry>
        </mxCell>
        <mxCell id="y3wrZIzh8ztNuLBp43Ln-16" value="" style="endArrow=classic;startArrow=classic;html=1;rounded=0;exitX=1;exitY=0.762;exitDx=0;exitDy=0;entryX=0;entryY=0.5;entryDx=0;entryDy=0;edgeStyle=orthogonalEdgeStyle;exitPerimeter=0;" parent="1" source="Y6avNihDts5gZcnMu05K-16" target="Y6avNihDts5gZcnMu05K-33" edge="1">
          <mxGeometry width="50" height="50" relative="1" as="geometry">
            <mxPoint x="320" y="950" as="sourcePoint" />
            <mxPoint x="370" y="900" as="targetPoint" />
          </mxGeometry>
        </mxCell>
        <mxCell id="y3wrZIzh8ztNuLBp43Ln-17" value="" style="endArrow=classic;startArrow=classic;html=1;rounded=0;entryX=0.998;entryY=0.49;entryDx=0;entryDy=0;entryPerimeter=0;edgeStyle=orthogonalEdgeStyle;exitX=1;exitY=0.5;exitDx=0;exitDy=0;" parent="1" source="Y6avNihDts5gZcnMu05K-33" target="Y6avNihDts5gZcnMu05K-1" edge="1">
          <mxGeometry width="50" height="50" relative="1" as="geometry">
            <mxPoint x="460" y="1025" as="sourcePoint" />
            <mxPoint x="696" y="550" as="targetPoint" />
            <Array as="points">
              <mxPoint x="740" y="1025" />
              <mxPoint x="740" y="548" />
            </Array>
          </mxGeometry>
        </mxCell>
        <mxCell id="y3wrZIzh8ztNuLBp43Ln-18" value="" style="endArrow=classic;startArrow=classic;html=1;rounded=0;exitX=0.5;exitY=0;exitDx=0;exitDy=0;entryX=0.5;entryY=1;entryDx=0;entryDy=0;entryPerimeter=0;" parent="1" source="Y6avNihDts5gZcnMu05K-15" target="Y6avNihDts5gZcnMu05K-1" edge="1">
          <mxGeometry width="50" height="50" relative="1" as="geometry">
            <mxPoint x="540" y="690" as="sourcePoint" />
            <mxPoint x="590" y="640" as="targetPoint" />
          </mxGeometry>
        </mxCell>
        <mxCell id="y3wrZIzh8ztNuLBp43Ln-19" value="&lt;span style=&quot;border-color: var(--border-color);&quot;&gt;&lt;span style=&quot;background-color: initial;&quot;&gt;&lt;b&gt;&lt;font style=&quot;font-size: 18px;&quot;&gt;&lt;br&gt;&amp;nbsp;Website&lt;/font&gt;&lt;/b&gt;&lt;br&gt;&lt;/span&gt;&lt;/span&gt;" style="rounded=0;whiteSpace=wrap;html=1;fillColor=#fff2cc;strokeColor=#d6b656;align=left;glass=1;shadow=0;" parent="1" vertex="1">
          <mxGeometry x="100" y="350" width="140" height="50" as="geometry" />
        </mxCell>
        <mxCell id="y3wrZIzh8ztNuLBp43Ln-22" value="&lt;b&gt;&lt;font style=&quot;font-size: 18px;&quot;&gt;&amp;nbsp;Backend&lt;/font&gt;&lt;/b&gt;&lt;br&gt;&amp;nbsp;Deployed on Vercel-Server" style="rounded=0;whiteSpace=wrap;html=1;verticalAlign=top;align=left;fillColor=#e1d5e7;strokeColor=#9673a6;glass=1;direction=west;" parent="1" vertex="1">
          <mxGeometry x="523" y="930" width="150" height="70" as="geometry" />
        </mxCell>
        <mxCell id="y3wrZIzh8ztNuLBp43Ln-23" value="&lt;b&gt;&lt;font style=&quot;&quot;&gt;&lt;br&gt;&lt;span style=&quot;font-size: 18px;&quot;&gt;&amp;nbsp;Geoserver&lt;/span&gt;&lt;/font&gt;&lt;/b&gt;" style="rounded=1;whiteSpace=wrap;html=1;align=left;verticalAlign=top;fillColor=#d5e8d4;strokeColor=#82b366;shadow=0;glass=1;" parent="1" vertex="1">
          <mxGeometry x="320" y="400" width="120" height="50" as="geometry" />
        </mxCell>
      </root>
    </mxGraphModel>
  </diagram>
</mxfile>
